# xmcd
#
# Track frame offsets: 
#        150
#        19412
#        36974
#        53473
#        72517
#        89917
#        106887
#        128891
#        147221
#        164812
#        183226
#        199724
#        217573
#        234809
#        254097
#        273229
#        285193
#        305186
#        319454
#
# Disc length: 4464 seconds
#
# Revision: 1
# Processed by: cddbd v1.5.2PL0 Copyright (c) Steve Scherf et al.
# Submitted via: ExactAudioCopyFreeDBPlugin 1.0
#
DISCID=1d116e13
DTITLE=Will Tura - Tura 70 - Helemaal Tura - CD 3
DYEAR=2010
DGENRE=Vlaams
TTITLE0=Bella Africa
TTITLE1=Als Jij De Klok Terug Kon Draaien
TTITLE2=Alles
TTITLE3=Het Staat In De Sterren Geschreven (Duet Met Jody)
TTITLE4=Zoals Die Zomer Van Tien Om Te Zien
TTITLE5=Rock 'n Roll In Mijn Hart
TTITLE6=Moa Ven Toh!
TTITLE7=Helena
TTITLE8=Boven De Wolken
TTITLE9=Hoop Doet Leven
TTITLE10=Hemelsblauw
TTITLE11=Een Hart Van Goud
TTITLE12=La Melodia (Italië In De Zon)
TTITLE13=Bloed, Zweet En Tranen
TTITLE14=De Mooiste
TTITLE15=Ik Hoor Je Toe
TTITLE16=Alleen Gaan
TTITLE17=De Mooiste Droom
TTITLE18=Omdat Ik Vlaming Ben
EXTD=
EXTT0=
EXTT1=
EXTT2=
EXTT3=
EXTT4=
EXTT5=
EXTT6=
EXTT7=
EXTT8=
EXTT9=
EXTT10=
EXTT11=
EXTT12=
EXTT13=
EXTT14=
EXTT15=
EXTT16=
EXTT17=
EXTT18=
PLAYORDER=
